<?xml version="1.0" encoding="utf-8"?>
<!-- Generator: Adobe Illustrator 24.1.0, SVG Export Plug-In . SVG Version: 6.00 Build 0)  -->
<svg version="1.1" id="Layer_1" xmlns="http://www.w3.org/2000/svg" xmlns:xlink="http://www.w3.org/1999/xlink" x="0px" y="0px"
	 viewBox="0 0 132.9 80.8" style="enable-background:new 0 0 132.9 80.8;" xml:space="preserve">
<style type="text/css">
	.st0{fill:#E51017;}
	.st1{fill:#FFFFFF;}
</style>
<rect y="0.9" class="st0" width="17.6" height="57.1"/>
<path class="st0" d="M51,58.8c-17.2,0-27.2-12.8-27.2-29.4C23.8,12.7,33.7,0,51.2,0c17.2,0,27,12.3,27,28.9S68.5,58.8,51,58.8
	 M51.2,13c-7.9,0-8.7,11.3-8.7,17s0.6,15.9,8.4,15.9c8.2,0,8.3-10.5,8.3-16.3V29C59.3,23.4,59.2,13,51.2,13"/>
<path class="st0" d="M112,37.2h-10V58H84.3V0.9h24.4c6.2,0,12.8,0.4,17.8,4.5c4.1,3.4,6.4,8.4,6.3,13.7
	C132.9,31.2,123.2,37.2,112,37.2 M108.2,14h-6.4v11h5.9c4,0,7.7-0.9,7.7-5.6C115.4,15,112,14,108.2,14"/>
<rect y="63.8" class="st1" width="1.6" height="13.5"/>
<path class="st1" d="M9.3,77.2v-6.1c0-1.2,0.1-2.8-1.6-2.8c-2,0-2.1,2.2-2.1,3.6v5.4H4.1v-9.9h1.4V69c0.3-1.1,1.4-1.9,2.6-1.9
	c0.8,0,1.6,0.3,2.1,0.9c0.5,0.9,0.7,2,0.6,3v6.3L9.3,77.2z"/>
<path class="st1" d="M15.7,77.5c-1.8,0.2-3.4-1.1-3.6-2.8l1.4-0.3c0.1,1.2,1.1,2,2.3,1.9l0,0c1,0,2-0.5,2-1.6c0-1.8-3.2-1.7-4.5-2.8
	c-0.5-0.5-0.8-1.1-0.8-1.9c0.1-1.7,1.5-3.1,3.2-3h0.1c0.9,0,1.8,0.3,2.4,1c0.4,0.4,0.7,1,0.8,1.6l-1.3,0.3c-0.2-1-1-1.6-2-1.6
	c-0.9-0.1-1.6,0.6-1.7,1.5c0,0,0,0,0,0.1c0,0.8,0.6,1.2,1.3,1.4c1.7,0.5,4.1,1,4.1,3.3C19.4,76.5,17.6,77.5,15.7,77.5"/>
<path class="st1" d="M23.9,77.5c-2.7,0-2.6-2-2.6-4v-5h-1.4v-1.2h1.4V65l1.5-0.1v2.5h2v1.2h-2v5c-0.1,0.7,0,1.4,0.2,2.1
	c0.3,0.5,0.8,0.7,1.3,0.6c0.3,0,0.6,0,0.9-0.1v1.2C24.8,77.5,24.4,77.5,23.9,77.5"/>
<path class="st1" d="M26.3,63.8H28v1.7h-1.7V63.8z M26.4,67.3h1.5v9.9h-1.5V67.3z"/>
<path class="st1" d="M33.3,77.5c-2.7,0-2.6-2-2.6-4v-5h-1.5v-1.2h1.5V65l1.5-0.1v2.5h2v1.2h-2v5c-0.1,0.7,0,1.4,0.2,2.1
	c0.3,0.5,0.8,0.7,1.3,0.6c0.3,0,0.6,0,0.9-0.1v1.2C34.2,77.5,33.8,77.5,33.3,77.5"/>
<path class="st1" d="M41.1,77.2v-1.5c-0.4,1.1-1.5,1.8-2.6,1.8c-0.7,0-1.5-0.2-2-0.8c-0.8-0.8-0.7-2.2-0.7-3.2v-6.3h1.5v6.6
	c0,1.2,0,2.4,1.5,2.4c1,0,1.8-0.7,1.9-1.7c0.2-0.9,0.3-1.8,0.3-2.8v-4.5h1.5v9.9L41.1,77.2L41.1,77.2z"/>
<path class="st1" d="M48,77.5c-2.7,0-2.6-2-2.6-4v-5H44v-1.2h1.5V65l1.5-0.1v2.5h2v1.2h-2v5c-0.1,0.7,0,1.4,0.2,2.1
	c0.3,0.5,0.8,0.7,1.3,0.6c0.3,0,0.6,0,0.9-0.1v1.2C48.9,77.5,48.5,77.5,48,77.5"/>
<path class="st1" d="M51.5,72.5L51.5,72.5c0,1.6,0.3,3.8,2.3,3.8c1.3,0,1.7-0.9,2.1-2l1.4,0.3c-0.2,1.7-1.8,3-3.5,2.9
	c-3,0-3.9-2.6-3.9-5.1s0.9-5.4,3.9-5.4c1.2,0,2.3,0.6,2.9,1.7c0.6,1.2,0.8,2.5,0.7,3.8L51.5,72.5z M53.7,68.3c-1.6,0-2,1.7-2.1,3
	h4.2C55.8,69.9,55.3,68.3,53.7,68.3"/>
<path class="st1" d="M65.9,77.5c-3,0-3.8-2.7-3.8-5.2s0.8-5.3,3.8-5.3s3.8,2.8,3.8,5.4S68.8,77.5,65.9,77.5 M65.9,68.2
	c-2,0-2.2,2.5-2.2,4s0.2,4,2.2,4s2.2-2.6,2.2-4S67.8,68.2,65.9,68.2"/>
<path class="st1" d="M74.8,64.8c-1.7,0-1.5,1.3-1.5,2.5h1.8v1.2h-1.8v8.7h-1.5v-8.7h-1.5v-1.2h1.5v-0.4c0-2,0.4-3.4,2.7-3.4
	c0.4,0,0.8,0,1.1,0.1v1.2C75.4,64.8,75.1,64.8,74.8,64.8"/>
<path class="st1" d="M87,71.5c-1.2,0.3-2.5,0.4-3.8,0.3v5.5h-1.7V63.8h2.9c1.4,0,2.9,0.1,3.9,1.2c0.7,0.8,1.1,1.8,1.1,2.8
	C89.5,69.4,88.5,70.9,87,71.5 M85.3,65.2h-2.1v5.3h1.3c2,0,3.2-0.3,3.2-2.6C87.6,66.4,86.9,65.2,85.3,65.2"/>
<path class="st1" d="M96,77.2V71c0-1.2,0.1-2.8-1.6-2.8c-1.9,0-2.1,2.4-2.1,3.8v5.2h-1.5V63.8h1.5v5c0.3-1.1,1.4-1.9,2.5-1.8
	c0.7,0,1.5,0.3,2,0.8c0.8,0.8,0.7,2.2,0.7,3.3v6.2L96,77.2z"/>
<path class="st1" d="M102.2,78.2c-0.4,1.4-0.9,2.6-2.6,2.6c-0.3,0-0.7,0-1-0.1v-1.2c0.2,0,0.5,0.1,0.7,0.1c0.3,0,0.5,0,0.8-0.1
	c0.6-0.3,1.1-2,1.2-2.7l-2.8-9.5h1.5l2.1,7.4l2.2-7.4h1.4L102.2,78.2z"/>
<path class="st1" d="M109.5,77.5c-1.8,0.2-3.4-1.1-3.6-2.8l1.4-0.3c0.1,1.2,1.1,2,2.3,1.9l0,0c1,0,2-0.5,2-1.6
	c0-1.8-3.2-1.7-4.5-2.8c-0.5-0.5-0.8-1.1-0.8-1.8c0.1-1.7,1.5-3.1,3.2-3h0.1c0.9,0,1.8,0.3,2.5,1c0.4,0.4,0.6,1,0.8,1.6l-1.3,0.3
	c-0.2-1-1-1.6-2-1.6c-0.9-0.1-1.6,0.5-1.7,1.4v0.1c0,0.8,0.6,1.2,1.3,1.4c1.7,0.5,4.1,1,4.1,3.3C113.1,76.5,111.3,77.5,109.5,77.5"
	/>
<path class="st1" d="M114.5,63.8h1.6v1.7h-1.6V63.8z M114.6,67.3h1.5v9.9h-1.5V67.3z"/>
<path class="st1" d="M123.8,76.5c-0.7,0.7-1.6,1.1-2.6,1c-3,0-3.6-2.8-3.6-5.2s0.7-5.3,3.7-5.3c0.9,0,1.8,0.3,2.3,1
	c0.6,0.7,0.9,1.5,1,2.4l-1.5,0.3c-0.2-1.2-0.3-2.4-1.9-2.4s-1.8,1.2-1.9,2.3c-0.1,0.7-0.1,1.3-0.1,2c0,1.4,0.2,3.7,2.1,3.7
	c1.5,0,1.7-1.2,1.8-2.4l1.5,0.2C124.7,74.9,124.4,75.8,123.8,76.5"/>
<path class="st1" d="M129.1,77.5c-1.8,0.2-3.4-1.1-3.6-2.8l1.4-0.3c0.1,1.2,1.1,2,2.3,1.9l0,0c1,0,2-0.5,2-1.6
	c0-1.8-3.2-1.7-4.5-2.8c-0.5-0.5-0.8-1.1-0.8-1.8c0-1.7,1.5-3.1,3.2-3h0.1c0.9,0,1.8,0.3,2.4,1c0.4,0.4,0.6,1,0.8,1.6l-1.3,0.3
	c-0.2-0.9-1-1.6-1.9-1.6c-0.9-0.1-1.6,0.5-1.7,1.4v0.1c0,0.8,0.6,1.2,1.3,1.4c1.7,0.5,4.1,1,4.1,3.3
	C132.7,76.5,130.9,77.5,129.1,77.5"/>
</svg>
