<?xml version="1.0" encoding="iso-8859-1"?>
<!-- Generator: Adobe Illustrator 18.0.0, SVG Export Plug-In . SVG Version: 6.00 Build 0)  -->
<!DOCTYPE svg PUBLIC "-//W3C//DTD SVG 1.1//EN" "http://www.w3.org/Graphics/SVG/1.1/DTD/svg11.dtd">
<svg version="1.1" id="Capa_1" xmlns="http://www.w3.org/2000/svg" xmlns:xlink="http://www.w3.org/1999/xlink" x="0px" y="0px"
	 viewBox="0 0 350 350" style="enable-background:new 0 0 350 350;" xml:space="preserve">
<path d="M342.24,162.504c0-2.359-0.989-4.447-2.707-6.259c1.393-1.421,2.345-3.017,2.709-4.786l-0.002-7.786
	c0-9.61-16.354-14.794-31.742-14.794c-15.389,0-31.744,5.184-31.744,14.795l0.008,7.621l0.019,0.164
	c0.365,1.764,1.306,3.354,2.69,4.77c-1.726,1.819-2.717,3.912-2.717,6.275l0.004,4.268h-54.39l-0.003-11.208
	c0-3.665-1.538-6.912-4.208-9.732c2.164-2.212,3.642-4.692,4.211-7.444l-0.003-12.109c0-6.207-4.396-11.223-11.24-14.972
	l26.785-26.785c5.696,5.087,17.328,7.722,28.319,7.722c14.412,0,29.96-4.524,31.745-13.174l-0.002-7.783
	c0-2.357-0.989-4.446-2.705-6.259c1.39-1.422,2.342-3.018,2.707-4.788l-0.002-7.783c0-2.359-0.989-4.446-2.705-6.26
	c1.39-1.422,2.342-3.017,2.707-4.787l-0.002-7.786c0-2.357-0.989-4.443-2.705-6.257c1.39-1.422,2.342-3.017,2.707-4.786
	l-0.002-7.786C299.973,5.185,283.616,0,268.229,0c-15.388,0-31.743,5.185-31.743,14.795l0.01,7.622l0.016,0.164
	c0.366,1.764,1.307,3.352,2.691,4.769c-1.726,1.818-2.717,3.912-2.717,6.273l0.01,7.624l0.016,0.162
	c0.366,1.765,1.307,3.355,2.691,4.772c-1.726,1.817-2.717,3.912-2.717,6.274l0.01,7.621l0.016,0.162
	c0.227,1.095,0.697,2.113,1.335,3.073l-42.024,42.025c-6.615-1.366-13.783-2.069-20.824-2.069c-7.041,0-14.206,0.703-20.82,2.069
	l-42.01-42.011c0.644-0.964,1.119-1.988,1.346-3.087l-0.002-7.783c0-2.359-0.989-4.446-2.707-6.26
	c1.392-1.422,2.345-3.017,2.709-4.787l-0.002-7.786c0-2.357-0.989-4.443-2.707-6.257c1.392-1.422,2.345-3.017,2.709-4.786
	l-0.002-7.786C113.512,5.185,97.156,0,81.771,0C66.382,0,50.025,5.185,50.025,14.795l0.008,7.622l0.02,0.164
	c0.364,1.764,1.305,3.352,2.689,4.769c-1.726,1.818-2.717,3.912-2.717,6.273l0.008,7.624l0.02,0.162
	c0.364,1.765,1.305,3.355,2.689,4.772c-1.726,1.817-2.717,3.912-2.717,6.274l0.008,7.621l0.02,0.162
	c0.364,1.766,1.305,3.355,2.689,4.773c-1.726,1.816-2.717,3.91-2.717,6.274l0.008,7.624l0.02,0.159
	c1.782,8.649,17.305,13.174,31.718,13.174c10.983,0,22.62-2.632,28.328-7.712l26.774,26.775
	c-6.845,3.749-11.241,8.765-11.241,14.974l0.011,11.851l0.027,0.256c0.568,2.744,2.034,5.215,4.185,7.418
	c-2.681,2.829-4.223,6.084-4.223,9.758l0.011,11.208H71.245l-0.001-4.268c0-2.359-0.989-4.447-2.705-6.259
	c1.39-1.421,2.341-3.017,2.707-4.786l-0.002-7.786c0-9.61-16.355-14.794-31.742-14.794c-15.389,0-31.744,5.184-31.744,14.795
	l0.01,7.621l0.017,0.164c0.365,1.764,1.306,3.354,2.69,4.77c-1.726,1.819-2.717,3.912-2.717,6.275l0.01,7.621l0.017,0.164
	c0.365,1.764,1.306,3.354,2.69,4.771c-1.726,1.816-2.717,3.912-2.717,6.273l0.01,7.621l0.017,0.164
	c0.365,1.765,1.306,3.355,2.69,4.771c-1.726,1.816-2.717,3.911-2.717,6.273l0.01,7.624l0.017,0.161
	c1.782,8.649,17.306,13.173,31.718,13.173c14.41,0,29.959-4.523,31.744-13.173l-0.002-7.785c0-2.357-0.989-4.445-2.705-6.258
	c1.39-1.421,2.341-3.018,2.707-4.787l-0.002-5.892h54.502c-0.068,0.533-0.114,1.072-0.114,1.624l0.011,11.853l0.027,0.253
	c0.568,2.746,2.034,5.219,4.185,7.422c-2.681,2.825-4.223,6.081-4.223,9.759l0.011,11.856l0.027,0.25
	c1.054,5.107,5.192,9.287,11.143,12.511l-26.775,26.776c-5.619-5.088-17.193-7.773-28.267-7.773
	c-15.389,0-31.745,5.184-31.745,14.795l0.008,7.621l0.02,0.164c0.364,1.763,1.305,3.354,2.689,4.769
	c-1.726,1.819-2.717,3.913-2.717,6.274l0.008,7.623l0.02,0.164c0.364,1.764,1.305,3.354,2.689,4.771
	c-1.726,1.817-2.717,3.911-2.717,6.274l0.008,7.621l0.02,0.164c0.364,1.764,1.305,3.354,2.689,4.77
	c-1.726,1.817-2.717,3.912-2.717,6.275l0.008,7.623l0.02,0.162C51.835,345.477,67.357,350,81.771,350
	c14.409,0,29.956-4.523,31.743-13.172l-0.002-7.785c0-2.358-0.989-4.446-2.707-6.259c1.392-1.421,2.345-3.017,2.709-4.786
	l-0.002-7.787c0-2.357-0.989-4.443-2.707-6.258c1.392-1.42,2.345-3.015,2.709-4.785l-0.002-7.787c0-1.682-0.512-3.223-1.423-4.628
	l42.069-42.07c6.645,1.358,13.826,2.048,20.84,2.048c7.012,0,14.196-0.688,20.845-2.047l42.066,42.066
	c-0.912,1.407-1.423,2.949-1.423,4.631l0.01,7.623l0.016,0.164c0.366,1.764,1.307,3.354,2.691,4.771
	c-1.726,1.817-2.717,3.911-2.717,6.274l0.01,7.621l0.016,0.164c0.366,1.764,1.307,3.354,2.691,4.77
	c-1.726,1.817-2.717,3.912-2.717,6.275l0.01,7.623l0.016,0.162c1.783,8.648,17.307,13.172,31.718,13.172
	c14.412,0,29.96-4.523,31.745-13.172l-0.002-7.785c0-2.358-0.989-4.446-2.705-6.259c1.39-1.421,2.342-3.017,2.707-4.786
	l-0.002-7.787c0-2.357-0.989-4.443-2.705-6.258c1.39-1.42,2.342-3.015,2.707-4.785l-0.002-7.787c0-2.357-0.989-4.445-2.705-6.258
	c1.39-1.422,2.342-3.017,2.707-4.785l-0.002-7.786c0-9.61-16.356-14.794-31.743-14.794c-11.073,0-22.647,2.685-28.267,7.771
	l-26.768-26.766c5.967-3.225,10.118-7.408,11.173-12.52l-0.003-12.106c0-3.667-1.538-6.915-4.208-9.735
	c2.164-2.209,3.642-4.691,4.211-7.445l-0.003-12.105c0-0.552-0.046-1.092-0.114-1.624h54.505l0.006,5.728l0.019,0.164
	c0.365,1.765,1.306,3.355,2.69,4.771c-1.726,1.816-2.717,3.911-2.717,6.273l0.008,7.624l0.019,0.161
	c1.783,8.649,17.306,13.173,31.718,13.173c14.41,0,29.958-4.523,31.744-13.173l-0.002-7.785c0-2.357-0.989-4.445-2.707-6.258
	c1.393-1.421,2.345-3.018,2.709-4.787l-0.002-7.785c0-2.359-0.989-4.445-2.707-6.258c1.393-1.422,2.345-3.017,2.709-4.787
	L342.24,162.504z M268.229,6.994c15.352,0,24.749,5.05,24.749,7.801c0,2.75-9.397,7.802-24.749,7.802s-24.75-5.052-24.75-7.802
	C243.48,12.044,252.878,6.994,268.229,6.994z M245.085,31.333c6.2,2.92,14.855,4.42,23.144,4.42c8.285,0,16.946-1.498,23.151-4.415
	c1.043,0.828,1.598,1.624,1.598,2.286c0,2.752-9.397,7.803-24.749,7.803s-24.75-5.051-24.75-7.803
	C243.48,32.96,244.037,32.162,245.085,31.333z M245.085,50.164c6.2,2.918,14.855,4.421,23.144,4.421
	c8.285,0,16.946-1.499,23.151-4.418c1.043,0.829,1.598,1.626,1.598,2.29c0,2.75-9.397,7.801-24.749,7.801s-24.75-5.051-24.75-7.801
	C243.48,51.792,244.037,50.991,245.085,50.164z M245.085,68.994c6.2,2.919,14.855,4.42,23.144,4.42c8.285,0,16.946-1.5,23.151-4.413
	c1.043,0.824,1.598,1.622,1.598,2.286c0,2.751-9.397,7.801-24.749,7.801s-24.75-5.05-24.75-7.801
	C243.48,70.621,244.037,69.824,245.085,68.994z M81.771,79.088c-15.352,0-24.75-5.05-24.75-7.801c0-0.666,0.556-1.463,1.606-2.293
	c6.197,2.919,14.851,4.42,23.144,4.42c8.283,0,16.944-1.5,23.149-4.413c1.043,0.824,1.599,1.622,1.599,2.286
	C106.519,74.038,97.122,79.088,81.771,79.088z M81.771,60.258c-15.352,0-24.75-5.051-24.75-7.801c0-0.665,0.556-1.466,1.606-2.293
	c6.197,2.918,14.851,4.421,23.144,4.421c8.283,0,16.944-1.499,23.149-4.418c1.043,0.829,1.599,1.626,1.599,2.29
	C106.519,55.207,97.122,60.258,81.771,60.258z M81.771,41.427c-15.352,0-24.75-5.051-24.75-7.803c0-0.664,0.556-1.462,1.606-2.291
	c6.197,2.92,14.851,4.42,23.144,4.42c8.283,0,16.944-1.498,23.149-4.415c1.043,0.828,1.599,1.624,1.599,2.286
	C106.519,36.376,97.122,41.427,81.771,41.427z M81.771,22.597c-15.352,0-24.75-5.052-24.75-7.802c0-2.751,9.398-7.801,24.75-7.801
	s24.748,5.05,24.748,7.801C106.519,17.545,97.122,22.597,81.771,22.597z M39.502,207.965c-15.354,0-24.751-5.05-24.751-7.801
	c0-0.664,0.558-1.462,1.605-2.291c6.2,2.919,14.856,4.42,23.146,4.42c8.284,0,16.945-1.5,23.15-4.414
	c1.042,0.825,1.597,1.622,1.597,2.285C64.249,202.915,54.853,207.965,39.502,207.965z M39.502,189.137
	c-15.354,0-24.751-5.053-24.751-7.803c0-0.664,0.558-1.465,1.605-2.293c6.2,2.92,14.856,4.423,23.146,4.423
	c8.284,0,16.945-1.499,23.15-4.418c1.042,0.829,1.597,1.626,1.597,2.288C64.249,184.084,54.853,189.137,39.502,189.137z
	 M39.502,170.305c-15.354,0-24.751-5.051-24.751-7.801c0-0.666,0.558-1.463,1.605-2.293c6.2,2.921,14.856,4.42,23.146,4.42
	c8.284,0,16.945-1.499,23.15-4.416c1.042,0.828,1.597,1.625,1.597,2.289C64.249,165.254,54.853,170.305,39.502,170.305z
	 M39.502,151.475c-15.354,0-24.751-5.052-24.751-7.802c0-2.749,9.397-7.801,24.751-7.801c15.351,0,24.747,5.052,24.747,7.801
	C64.249,146.423,54.853,151.475,39.502,151.475z M81.771,336.844c-15.352,0-24.75-5.051-24.75-7.801
	c0-0.665,0.556-1.462,1.606-2.293c6.197,2.92,14.851,4.422,23.144,4.422c8.283,0,16.944-1.5,23.149-4.415
	c1.043,0.825,1.599,1.622,1.599,2.286C106.519,331.793,97.122,336.844,81.771,336.844z M81.771,318.016
	c-15.352,0-24.75-5.053-24.75-7.805c0-0.662,0.556-1.463,1.606-2.291c6.197,2.918,14.851,4.422,23.144,4.422
	c8.283,0,16.944-1.5,23.149-4.418c1.043,0.83,1.599,1.627,1.599,2.287C106.519,312.963,97.122,318.016,81.771,318.016z
	 M81.771,299.184c-15.352,0-24.75-5.052-24.75-7.803c0-0.664,0.556-1.463,1.606-2.293c6.197,2.922,14.851,4.422,23.144,4.422
	c8.283,0,16.944-1.499,23.149-4.416c1.043,0.828,1.599,1.625,1.599,2.287C106.519,294.132,97.122,299.184,81.771,299.184z
	 M81.771,280.352c-15.352,0-24.75-5.05-24.75-7.8s9.398-7.802,24.75-7.802s24.748,5.052,24.748,7.802S97.122,280.352,81.771,280.352
	z M268.229,264.75c15.352,0,24.749,5.052,24.749,7.802s-9.397,7.8-24.749,7.8s-24.75-5.05-24.75-7.8S252.878,264.75,268.229,264.75z
	 M245.085,289.088c6.2,2.922,14.855,4.422,23.144,4.422c8.285,0,16.946-1.499,23.151-4.416c1.043,0.828,1.598,1.625,1.598,2.287
	c0,2.751-9.397,7.803-24.749,7.803s-24.75-5.052-24.75-7.803C243.48,290.717,244.037,289.918,245.085,289.088z M245.085,307.92
	c6.2,2.918,14.855,4.422,23.144,4.422c8.285,0,16.946-1.5,23.151-4.418c1.043,0.83,1.598,1.627,1.598,2.287
	c0,2.752-9.397,7.805-24.749,7.805s-24.75-5.053-24.75-7.805C243.48,309.549,244.037,308.748,245.085,307.92z M245.085,326.75
	c6.2,2.92,14.855,4.422,23.144,4.422c8.285,0,16.946-1.5,23.151-4.415c1.043,0.825,1.598,1.622,1.598,2.286
	c0,2.75-9.397,7.801-24.749,7.801s-24.75-5.051-24.75-7.801C243.48,328.378,244.037,327.581,245.085,326.75z M174.998,226.269
	c-23.873,0-38.49-7.855-38.49-12.131c0-1.034,0.869-2.275,2.496-3.565c9.643,4.539,23.102,6.873,35.994,6.873
	c12.884,0,26.354-2.332,36.006-6.863c1.62,1.282,2.486,2.523,2.486,3.556C213.49,218.414,198.874,226.269,174.998,226.269z
	 M174.998,196.986c-23.873,0-38.49-7.857-38.49-12.135c0-1.033,0.869-2.277,2.496-3.566c9.643,4.54,23.102,6.877,35.994,6.877
	c12.884,0,26.354-2.333,36.006-6.869c1.62,1.287,2.486,2.527,2.486,3.559C213.49,189.129,198.874,196.986,174.998,196.986z
	 M174.998,167.697c-23.873,0-38.49-7.855-38.49-12.133c0-1.033,0.869-2.275,2.496-3.564c9.643,4.542,23.102,6.874,35.994,6.874
	c12.884,0,26.354-2.33,36.006-6.866c1.62,1.287,2.486,2.527,2.486,3.557C213.49,159.842,198.874,167.697,174.998,167.697z
	 M174.998,138.412c-23.873,0-38.49-7.854-38.49-12.133c0-4.276,14.617-12.132,38.49-12.132c23.876,0,38.492,7.855,38.492,12.132
	C213.49,130.558,198.874,138.412,174.998,138.412z M310.498,207.965c-15.35,0-24.748-5.05-24.748-7.801
	c0-0.664,0.556-1.462,1.604-2.291c6.198,2.919,14.853,4.42,23.143,4.42c8.284,0,16.945-1.5,23.15-4.414
	c1.043,0.825,1.599,1.622,1.599,2.285C335.247,202.915,325.852,207.965,310.498,207.965z M310.498,189.137
	c-15.35,0-24.748-5.053-24.748-7.803c0-0.664,0.556-1.465,1.604-2.293c6.198,2.92,14.853,4.423,23.143,4.423
	c8.284,0,16.945-1.499,23.15-4.418c1.043,0.829,1.599,1.626,1.599,2.288C335.247,184.084,325.852,189.137,310.498,189.137z
	 M310.498,170.305c-15.35,0-24.748-5.051-24.748-7.801c0-0.666,0.556-1.463,1.604-2.293c6.198,2.921,14.853,4.42,23.143,4.42
	c8.284,0,16.945-1.499,23.15-4.416c1.043,0.828,1.599,1.625,1.599,2.289C335.247,165.254,325.852,170.305,310.498,170.305z
	 M310.498,151.475c-15.35,0-24.748-5.052-24.748-7.802c0-2.749,9.397-7.801,24.748-7.801c15.354,0,24.749,5.052,24.749,7.801
	C335.247,146.423,325.852,151.475,310.498,151.475z"/>
<g>
</g>
<g>
</g>
<g>
</g>
<g>
</g>
<g>
</g>
<g>
</g>
<g>
</g>
<g>
</g>
<g>
</g>
<g>
</g>
<g>
</g>
<g>
</g>
<g>
</g>
<g>
</g>
<g>
</g>
</svg>
