<?xml version="1.0" encoding="iso-8859-1"?>
<!-- Generator: Adobe Illustrator 18.0.0, SVG Export Plug-In . SVG Version: 6.00 Build 0)  -->
<!DOCTYPE svg PUBLIC "-//W3C//DTD SVG 1.1//EN" "http://www.w3.org/Graphics/SVG/1.1/DTD/svg11.dtd">
<svg version="1.1" id="Capa_1" xmlns="http://www.w3.org/2000/svg" xmlns:xlink="http://www.w3.org/1999/xlink" x="0px" y="0px"
	 viewBox="0 0 350.221 350.221" style="enable-background:new 0 0 350.221 350.221;" xml:space="preserve">
<g>
	<path d="M258.208,271.182c6.696,1.698,12.628,5.331,17.166,10.268l41.74-72.297c-6.728-1.603-12.707-5.15-17.31-10.019
		L258.208,271.182z"/>
	<path d="M92.014,79.039c-6.696-1.698-12.629-5.331-17.166-10.267l-41.74,72.296c6.729,1.602,12.706,5.15,17.31,10.018
		L92.014,79.039z"/>
	<path d="M258.208,79.039l41.596,72.047c4.603-4.868,10.582-8.416,17.31-10.018l-41.74-72.297
		C270.836,73.708,264.904,77.341,258.208,79.039z"/>
	<path d="M92.014,271.182l-41.597-72.048c-4.604,4.868-10.581,8.416-17.31,10.019l41.74,72.297
		C79.385,276.513,85.317,272.88,92.014,271.182z"/>
	<path d="M188.552,261.937l20.42-13.352l17.527,30.359c3.736-3.318,8.184-5.852,13.084-7.336l-18.039-31.244l20.666-13.514v44.076
		c2.418-0.529,4.926-0.816,7.5-0.816c2.574,0,5.082,0.287,7.5,0.816v-53.885l37.693-24.648c-2.91-5.104-4.584-11-4.584-17.283
		c0-6.284,1.674-12.182,4.584-17.284l-37.693-24.648V79.294c-2.418,0.529-4.926,0.816-7.5,0.816c-2.574,0-5.082-0.287-7.5-0.816
		v44.077l-21.463-14.034l17.77-31.072c-4.844-1.64-9.211-4.311-12.848-7.752l-17.498,30.6l-19.619-12.828l33.426-21.857
		c-4.551-5.907-7.268-13.299-7.268-21.316c0-3.475,0.516-6.828,1.463-10h-81.926c0.947,3.172,1.463,6.525,1.463,10
		c0,8.16-2.814,15.67-7.514,21.629l32.947,21.545l-19.893,13.008l-17.33-30.017c-3.736,3.319-8.184,5.852-13.084,7.336l17.84,30.902
		l-21.189,13.857V79.446c-2.193,0.432-4.459,0.664-6.777,0.664c-2.832,0-5.584-0.346-8.223-0.984v54.053l-37.17,24.306
		c3.033,5.18,4.781,11.201,4.781,17.627c0,6.423-1.748,12.445-4.781,17.626l37.17,24.305v54.053
		c2.639-0.639,5.391-0.984,8.223-0.984c2.318,0,4.584,0.232,6.777,0.664v-43.924l20.947,13.697l-17.738,31.021
		c4.908,1.465,9.365,3.979,13.115,7.281l17.199-30.078l20.133,13.164l-32.947,21.545c4.699,5.959,7.514,13.469,7.514,21.629
		c0,3.475-0.516,6.828-1.463,10h81.926c-0.947-3.172-1.463-6.525-1.463-10c0-8.018,2.717-15.408,7.268-21.316L188.552,261.937z
		 M257.21,151.101l25.248,16.51H257.21V151.101z M257.21,182.61h25.248l-25.248,16.51V182.61z M92.487,199.12l-25.248-16.51h25.248
		V199.12z M92.487,167.611H67.239l25.248-16.51V167.611z M242.21,208.929l-28.178,18.424L188.2,182.61h54.01V208.929z
		 M213.288,122.38l28.922,18.912v26.318h-54.785L213.288,122.38z M137.821,55.11h74.055l-37.027,24.213L137.821,55.11z
		 M174.849,97.245l25.863,16.912l-25.893,45.278l-26.057-45.134L174.849,97.245z M107.487,141.292l28.701-18.768l26.031,45.087
		h-54.732V141.292z M135.894,227.503l-28.406-18.574V182.61h54.08L135.894,227.503z M148.472,235.728l26.41-46.186l26.578,46.033
		l-26.611,17.4L148.472,235.728z M137.821,295.11l37.027-24.213l37.027,24.213H137.821z"/>
	<circle cx="100.61" cy="45.11" r="25"/>
	<circle cx="249.61" cy="45.11" r="25"/>
	<circle cx="100.61" cy="305.11" r="25"/>
	<circle cx="249.61" cy="305.11" r="25"/>
	<circle cx="25" cy="175.11" r="25"/>
	<circle cx="325.221" cy="175.11" r="25"/>
</g>
<g>
</g>
<g>
</g>
<g>
</g>
<g>
</g>
<g>
</g>
<g>
</g>
<g>
</g>
<g>
</g>
<g>
</g>
<g>
</g>
<g>
</g>
<g>
</g>
<g>
</g>
<g>
</g>
<g>
</g>
</svg>
