<svg xmlns="http://www.w3.org/2000/svg" xmlns:xlink="http://www.w3.org/1999/xlink" viewBox="0 0 72 72"><defs><style>.cls-1{fill:url(#linear-gradient);}.cls-2{fill:#fffffe;}.cls-3{fill:url(#linear-gradient-2);}</style><linearGradient id="linear-gradient" x1="926.73764" y1="831.7737" x2="977.64933" y2="780.86201" gradientTransform="matrix(0.70709, 0.70712, 0.70712, -0.70709, -1207.45347, -67.17134)" gradientUnits="userSpaceOnUse"><stop offset="0" stop-color="#66b9e2"/><stop offset="0.134" stop-color="#60b7e1"/><stop offset="0.31" stop-color="#50b0de"/><stop offset="0.509" stop-color="#35a4d9"/><stop offset="0.723" stop-color="#0f95d2"/><stop offset="0.8" stop-color="#008ecf"/></linearGradient><linearGradient id="linear-gradient-2" x1="628" y1="-513.589" x2="628" y2="-472.50599" gradientTransform="matrix(1, 0, 0, -1, -592, -457.724)" gradientUnits="userSpaceOnUse"><stop offset="0" stop-color="#76bfe4"/><stop offset="0.123" stop-color="#70bde3"/><stop offset="0.283" stop-color="#60b6e0"/><stop offset="0.464" stop-color="#45abdb"/><stop offset="0.66" stop-color="#1f9bd5"/><stop offset="0.8" stop-color="#008ecf"/></linearGradient></defs><title>logo_acm</title><g id="Layer_2" data-name="Layer 2"><g id="Layer_1-2" data-name="Layer 1"><path class="cls-1" d="M36,72,0,36,36,0,72,36Z"/><circle class="cls-2" cx="36" cy="36" r="22.072"/><circle class="cls-3" cx="36" cy="36" r="19.865"/><path class="cls-2" d="M24.434,39.867c-.203.17-.387.322-.547.457a3.18636,3.18636,0,0,1-.65.41,4.08579,4.08579,0,0,1-.776.293,4.58655,4.58655,0,0,1-1.057.1,2.81821,2.81821,0,0,1-2.102-.852,2.92558,2.92558,0,0,1-.836-2.146,3.12229,3.12229,0,0,1,.424-1.721,2.91523,2.91523,0,0,1,1.223-1.039,6.481,6.481,0,0,1,1.928-.545q1.20143-.16146,2.412-.238v-.051a1.12066,1.12066,0,0,0-.582-1.092,3.9,3.9,0,0,0-1.746-.303,4.73515,4.73515,0,0,0-1.23.193,9.70964,9.70964,0,0,0-1.375.492h-.254V31.51c.295-.086.771-.186,1.432-.303a11.35667,11.35667,0,0,1,1.992-.176,6.19253,6.19253,0,0,1,3.602.824,2.90031,2.90031,0,0,1,1.129,2.51v6.514H24.437V39.867Zm0-1.49V36.395c-.502.051-.906.096-1.215.13a3.961,3.961,0,0,0-.912.218,1.279,1.279,0,0,0-.605.411,1.15754,1.15754,0,0,0-.215.729,1.05447,1.05447,0,0,0,.359.921,1.85875,1.85875,0,0,0,1.061.247,1.99645,1.99645,0,0,0,.793-.176A2.4471,2.4471,0,0,0,24.434,38.377Zm9.533,2.75a7.46426,7.46426,0,0,1-2.172-.299,4.58194,4.58194,0,0,1-1.709-.92,4.18006,4.18006,0,0,1-1.119-1.559,6.4041,6.4041,0,0,1,.037-4.553,4.38985,4.38985,0,0,1,1.179-1.582,4.61189,4.61189,0,0,1,1.684-.879,7.14767,7.14767,0,0,1,2.018-.287,7.07488,7.07488,0,0,1,3.184.768v2.561H36.68q-.21093-.19673-.438-.375a4.176,4.176,0,0,0-.568-.377,3.64835,3.64835,0,0,0-.732-.303,3.16262,3.16262,0,0,0-.914-.123,2.11978,2.11978,0,0,0-1.771.795,3.351,3.351,0,0,0-.627,2.137,3.01208,3.01208,0,0,0,.67,2.142,2.34057,2.34057,0,0,0,1.779.707,3.49318,3.49318,0,0,0,.989-.129,3.12616,3.12616,0,0,0,1.248-.672c.143-.125.266-.24.367-.341h.385v2.55c-.172.073-.369.157-.594.256a5.36592,5.36592,0,0,1-.688.235,7.7716,7.7716,0,0,1-.816.183A6.4899,6.4899,0,0,1,33.967,41.127Zm16.109-.246V36.098c0-.471-.01-.869-.025-1.193a2.43765,2.43765,0,0,0-.154-.793.869.869,0,0,0-.396-.447,1.68058,1.68058,0,0,0-.758-.141,1.71106,1.71106,0,0,0-.676.146,4.79919,4.79919,0,0,0-.729.426v6.785H44.354V36.098c0-.465-.01-.861-.027-1.189a2.51383,2.51383,0,0,0-.158-.797.869.869,0,0,0-.396-.447,1.81029,1.81029,0,0,0-1.469.029,5.36069,5.36069,0,0,0-.684.402v6.785H38.636V31.319H41.62v1.055a7.83551,7.83551,0,0,1,1.379-.971,3.008,3.008,0,0,1,1.455-.352,2.83807,2.83807,0,0,1,1.541.418,2.64841,2.64841,0,0,1,1.014,1.244,8.83084,8.83084,0,0,1,1.623-1.23,3.14684,3.14684,0,0,1,2.736-.217,2.30136,2.30136,0,0,1,.895.639,2.97753,2.97753,0,0,1,.602,1.094,5.59823,5.59823,0,0,1,.201,1.656v6.227l-2.99-.001Z"/></g></g></svg>