<svg xmlns="http://www.w3.org/2000/svg" width="105" height="80" viewBox="0 0 105 80"><path fill="#FFF" d="M0 0h64.902L105 41.12 65.657 80H0V0z"/><linearGradient id="a" gradientUnits="userSpaceOnUse" x1="872.792" y1="-418.978" x2="923.704" y2="-368.066" gradientTransform="rotate(45.001 -46.196 -1193.437)"><stop offset="0" stop-color="#66b9e2"/><stop offset=".134" stop-color="#60b7e1"/><stop offset=".31" stop-color="#50b0de"/><stop offset=".509" stop-color="#35a4d9"/><stop offset=".723" stop-color="#0f95d2"/><stop offset=".8" stop-color="#008ecf"/></linearGradient><path fill="url(#a)" d="M56 76L20 40 56 4l36 36z"/><circle fill="#FFFFFE" cx="56" cy="40" r="22.072"/><linearGradient id="b" gradientUnits="userSpaceOnUse" x1="648" y1="590.865" x2="648" y2="549.782" gradientTransform="translate(-592 -531)"><stop offset="0" stop-color="#76bfe4"/><stop offset=".123" stop-color="#70bde3"/><stop offset=".283" stop-color="#60b6e0"/><stop offset=".464" stop-color="#45abdb"/><stop offset=".66" stop-color="#1f9bd5"/><stop offset=".8" stop-color="#008ecf"/></linearGradient><circle fill="url(#b)" cx="56" cy="40" r="19.865"/><path d="M44.434 43.867c-.203.17-.387.322-.547.457a3.186 3.186 0 0 1-.65.41 4.086 4.086 0 0 1-.776.293c-.252.062-.604.1-1.057.1-.844 0-1.545-.283-2.102-.852-.559-.566-.836-1.281-.836-2.146 0-.713.141-1.281.424-1.721.283-.438.691-.783 1.223-1.039.539-.26 1.18-.441 1.928-.545a34.402 34.402 0 0 1 2.412-.238v-.051c0-.527-.195-.891-.582-1.092-.39-.203-.969-.303-1.746-.303-.35 0-.76.064-1.23.193a9.71 9.71 0 0 0-1.375.492h-.254V35.51c.295-.086.771-.186 1.432-.303a11.357 11.357 0 0 1 1.992-.176c1.648 0 2.85.275 3.602.824.752.547 1.129 1.385 1.129 2.51v6.514h-2.984v-1.012h-.003zm0-1.49v-1.982c-.502.051-.906.096-1.215.13a3.961 3.961 0 0 0-.912.218c-.26.09-.461.228-.605.411-.143.183-.215.429-.215.729 0 .447.121.752.359.921.238.166.592.247 1.061.247.258 0 .521-.059.793-.176.269-.115.513-.285.734-.498zm9.533 2.75c-.791 0-1.516-.1-2.172-.299a4.582 4.582 0 0 1-1.709-.92 4.18 4.18 0 0 1-1.119-1.559c-.267-.627-.4-1.365-.4-2.219 0-.914.146-1.691.437-2.334a4.39 4.39 0 0 1 1.179-1.582 4.612 4.612 0 0 1 1.684-.879 7.148 7.148 0 0 1 2.018-.287 7.075 7.075 0 0 1 3.184.768v2.561h-.389a6.792 6.792 0 0 0-.438-.375 4.177 4.177 0 0 0-.568-.377 3.648 3.648 0 0 0-.732-.303 3.163 3.163 0 0 0-.914-.123c-.764 0-1.354.264-1.771.795-.418.529-.627 1.24-.627 2.137 0 .957.224 1.673.67 2.142.447.47 1.039.707 1.779.707.375 0 .705-.045.989-.129.285-.082.531-.187.734-.304a3.3 3.3 0 0 0 .514-.368c.143-.125.266-.24.367-.341h.385v2.55c-.172.073-.369.157-.594.256a5.367 5.367 0 0 1-.688.235c-.291.08-.562.142-.816.183s-.589.065-1.003.065zm16.109-.246v-4.783c0-.471-.01-.869-.025-1.193-.018-.322-.068-.588-.154-.793a.869.869 0 0 0-.396-.447c-.18-.093-.434-.141-.758-.141-.229 0-.453.051-.676.146a4.8 4.8 0 0 0-.729.426v6.785h-2.984v-4.783c0-.465-.01-.861-.027-1.189-.021-.326-.072-.592-.158-.797a.869.869 0 0 0-.396-.447c-.181-.093-.432-.141-.748-.141a1.66 1.66 0 0 0-.721.17 5.36 5.36 0 0 0-.684.402v6.785h-2.984v-9.562h2.984v1.055a7.836 7.836 0 0 1 1.379-.971 3.008 3.008 0 0 1 1.455-.352c.586 0 1.1.141 1.541.418.441.279.779.693 1.014 1.244.574-.533 1.115-.943 1.623-1.23.51-.287 1.021-.432 1.545-.432.443 0 .842.072 1.191.215.354.143.648.354.895.639.27.307.469.67.602 1.094.135.424.201.977.201 1.656v6.227l-2.99-.001z" fill="#FFFFFE"/></svg>