<?xml version="1.0" standalone="no"?><svg xmlns="http://www.w3.org/2000/svg" viewBox="0 0 1440 320"><path fill="#000b76" fill-opacity="0.8" d="M0,128L40,144C80,160,160,192,240,218.7C320,245,400,267,480,245.3C560,224,640,160,720,144C800,128,880,160,960,154.7C1040,149,1120,107,1200,74.7C1280,43,1360,21,1400,10.7L1440,0L1440,320L1400,320C1360,320,1280,320,1200,320C1120,320,1040,320,960,320C880,320,800,320,720,320C640,320,560,320,480,320C400,320,320,320,240,320C160,320,80,320,40,320L0,320Z"></path></svg>