<svg xmlns="http://www.w3.org/2000/svg" xmlns:xlink="http://www.w3.org/1999/xlink" viewBox="0 0 396.12951 374.74032"><defs><style>.cls-1{fill:url(#linear-gradient);}.cls-2{fill:#fff;}.cls-3{fill:url(#linear-gradient-2);}.cls-4{fill:#197bad;}.cls-5{fill:#1a628c;}.cls-6{fill:none;}.cls-7{fill:#053653;}</style><linearGradient id="linear-gradient" x1="-432.39355" y1="2615.26465" x2="-167.41213" y2="2350.28323" gradientTransform="matrix(0.70709, 0.70712, 0.70712, -0.70709, -1345.49251, 2154.99282)" gradientUnits="userSpaceOnUse"><stop offset="0" stop-color="#67b8e1"/><stop offset="0.134" stop-color="#61b6e0"/><stop offset="0.31" stop-color="#50aedc"/><stop offset="0.509" stop-color="#34a2d7"/><stop offset="0.723" stop-color="#1194d1"/><stop offset="0.8" stop-color="#0c8dcd"/></linearGradient><linearGradient id="linear-gradient-2" x1="448.06475" y1="1633.04179" x2="448.06475" y2="1846.86761" gradientTransform="matrix(1, 0, 0, -1, -250, 1923.80383)" gradientUnits="userSpaceOnUse"><stop offset="0" stop-color="#76bee3"/><stop offset="0.123" stop-color="#71bce1"/><stop offset="0.283" stop-color="#60b5df"/><stop offset="0.464" stop-color="#44a9d9"/><stop offset="0.66" stop-color="#219ad4"/><stop offset="0.8" stop-color="#0c8dcd"/></linearGradient></defs><title>ACMO</title><g id="Layer_2" data-name="Layer 2"><g id="ACM_Logo" data-name="ACM Logo"><path class="cls-1" d="M198.06475,374.74032,10.6946,187.37016,198.06475,0,385.43491,187.37016Z"/><circle class="cls-2" cx="198.06475" cy="187.37016" r="114.87872"/><circle class="cls-3" cx="198.06475" cy="187.37016" r="103.39188"/><path class="cls-2" d="M137.86688,207.49684c-1.05656.88479-2.01424,1.67591-2.847,2.37856a16.58267,16.58267,0,0,1-3.38308,2.13394,21.26654,21.26654,0,0,1-4.03888,1.525,23.87173,23.87173,0,0,1-5.50139.52047,14.66792,14.66792,0,0,1-10.94034-4.43444,15.22669,15.22669,0,0,1-4.35114-11.16934,16.2511,16.2511,0,0,1,2.2068-8.95734,15.17336,15.17336,0,0,1,6.36538-5.40772,33.73323,33.73323,0,0,1,10.03472-2.83656q6.25311-.84036,12.55379-1.23872v-.26544c0-2.74289-1.01492-4.6374-3.02915-5.68355-2.02984-1.05656-5.04339-1.577-9.08745-1.577a24.64527,24.64527,0,0,0-6.40181,1.00451,50.53761,50.53761,0,0,0-7.1565,2.56073h-1.322V164.00093c1.53539-.4476,4.01285-.96809,7.45317-1.577a59.11009,59.11009,0,0,1,10.36782-.916q12.86607,0,18.74743,4.2887,5.87093,4.27049,5.87614,13.06386V212.764H137.88248v-5.26719Zm0-7.755V189.426c-2.61277.26543-4.71548.49965-6.32375.67662a20.61575,20.61575,0,0,0-4.7467,1.13462,6.6569,6.6569,0,0,0-3.14886,2.13914,6.02465,6.02465,0,0,0-1.119,3.79425c0,2.3265.62977,3.91394,1.86851,4.79356a9.67431,9.67431,0,0,0,5.52222,1.28557,10.391,10.391,0,0,0,4.12734-.916A12.73614,12.73614,0,0,0,137.86688,199.74179Zm49.61666,14.313a38.84919,38.84919,0,0,1-11.30467-1.55622,23.848,23.848,0,0,1-8.89488-4.78834,21.75591,21.75591,0,0,1-5.82408-8.11417,33.3315,33.3315,0,0,1,.19257-23.69713,22.84881,22.84881,0,0,1,6.13637-8.23388,24.00418,24.00418,0,0,1,8.76475-4.575,37.204,37.204,0,0,1,10.50315-1.49375,36.82354,36.82354,0,0,1,16.57186,3.99724v13.32931H201.604q-1.09787-1.02387-2.27967-1.95177a21.74038,21.74038,0,0,0-2.95629-1.96218,18.98691,18.98691,0,0,0-3.80985-1.577,16.46221,16.46221,0,0,0-4.75713-.64018q-5.96461,0-9.21757,4.13774-3.26335,4.12995-3.26336,11.12251c0,4.98093,1.16586,8.70751,3.48716,11.14852a12.18218,12.18218,0,0,0,9.25921,3.67974,18.182,18.182,0,0,0,5.14746-.67142,16.2708,16.2708,0,0,0,6.49551-3.49758c.74428-.65059,1.38445-1.24914,1.91014-1.77481h2.00381v13.27205c-.89522.38-1.92054.81715-3.09162,1.33241a27.92971,27.92971,0,0,1-3.58085,1.22312,40.46275,40.46275,0,0,1-4.24707.95246A33.77761,33.77761,0,0,1,187.48354,214.05479Zm83.84293-1.28036V187.88022c0-2.45143-.05206-4.52291-.13013-6.20924a12.68694,12.68694,0,0,0-.80152-4.12735,4.5228,4.5228,0,0,0-2.06109-2.3265,8.747,8.747,0,0,0-3.9452-.73386,8.90553,8.90553,0,0,0-3.51841.75989,24.98205,24.98205,0,0,0-3.79423,2.2172v35.31407H241.545V187.88022c0-2.4202-.05206-4.48127-.14053-6.18842a13.08325,13.08325,0,0,0-.82233-4.14817,4.52281,4.52281,0,0,0-2.06107-2.3265,9.42218,9.42218,0,0,0-7.64575.15093,27.89824,27.89824,0,0,0-3.56005,2.0923v35.31407H211.78434v-49.7676h15.53091v5.491a40.7845,40.7845,0,0,1,7.17733-5.05379,15.65568,15.65568,0,0,1,7.57287-1.83207,14.77138,14.77138,0,0,1,8.02048,2.17557,13.78419,13.78419,0,0,1,5.27759,6.47468,45.962,45.962,0,0,1,8.44728-6.40181,16.37843,16.37843,0,0,1,14.24013-1.12942,11.97745,11.97745,0,0,1,4.65822,3.32582,15.497,15.497,0,0,1,3.13323,5.694,29.13687,29.13687,0,0,1,1.04613,8.619v32.40984l-15.56212-.0052Z"/><g id="Layer_1-2" data-name="Layer 1-2"><g id="Layer_1-2-2" data-name="Layer 1-2-2"><polygon class="cls-4" points="36.718 248.515 200.44 227.243 359.455 248.515 359.455 288.032 201.376 267.766 36.718 288.032 36.718 248.515"/><path class="cls-5" d="M396.12951,251.557l-36.69184,6.06763v30.39883l-22.19884,8.96275v.208l58.89068,8.06127-10.34964-30.39015Z"/><path class="cls-5" d="M57.71182,297.36762a7.2325,7.2325,0,0,1,0-.86681l-21.02-8.486V257.67665L0,251.56569,10.34964,274.874,0,305.25554Z"/><line class="cls-6" x1="45.96662" y1="293.12028" x2="65.90312" y2="290.51987"/><polyline class="cls-7" points="337.811 297.151 337.811 284.99 359.152 288.032"/><polyline class="cls-7" points="57.417 296.137 57.417 284.99 37.039 288.032"/><path class="cls-2" d="M59.53565,258.52824l.79781,3.55356-.16208,10.57941q-.01969.76819-.41309.86-.4152.09651-.753-.58577l-4.64342-9.46035-.79782-3.55356a1.38391,1.38391,0,0,1,.01524-.74237.512.512,0,0,1,.35553-.38431.50143.50143,0,0,1,.48461.18877,1.368,1.368,0,0,1,.33013.66111l.70724,3.14978,3.48415,7.08088.121-7.89859-.71275-3.17264a1.37514,1.37514,0,0,1,.01607-.74237.512.512,0,0,1,.35553-.3843.50236.50236,0,0,1,.48419.18961A1.36506,1.36506,0,0,1,59.53565,258.52824Z"/><path class="cls-2" d="M69.41248,271.39656l-3.598.77961a.5026.5026,0,0,1-.47826-.18961,1.46385,1.46385,0,0,1-.29162-1.36031.50707.50707,0,0,1,.35679-.37753l1.20879-.26157-1.54188-7.19684-1.19481.259a.503.503,0,0,1-.48-.19638,1.318,1.318,0,0,1-.317-.63995,1.38061,1.38061,0,0,1,.02329-.73136.50644.50644,0,0,1,.35551-.38346l1.7988-.38939a.502.502,0,0,1,.48123.20231,1.37074,1.37074,0,0,1,.32082.65688l1.74842,8.16015,1.18043-.25564a.5173.5173,0,0,1,.485.18877,1.26849,1.26849,0,0,1,.32632.64417,1.29681,1.29681,0,0,1-.02963.72119A.5094.5094,0,0,1,69.41248,271.39656ZM63.56366,255.839l.618-.13375a.50259.50259,0,0,1,.4791.19046,1.31009,1.31009,0,0,1,.31828.64587l.17692.82617a1.38031,1.38031,0,0,1-.02286.73137.506.506,0,0,1-.35637.38261l-.63232.13713a.50707.50707,0,0,1-.48888-.20569,1.28249,1.28249,0,0,1-.30728-.62979l-.168-.85241a1.31872,1.31872,0,0,1,.0254-.72037A.50586.50586,0,0,1,63.56366,255.839Z"/><path class="cls-2" d="M75.33239,260.12387l-.92817-4.54818a1.32625,1.32625,0,0,1,.0292-.71528.48741.48741,0,0,1,.3496-.36233.52024.52024,0,0,1,.48166.19639,1.27232,1.27232,0,0,1,.31743.645l2.7147,13.30087a1.30068,1.30068,0,0,1-.03554.71783.46011.46011,0,0,1-.83548.16675,1.341,1.341,0,0,1-.30685-.64835l-.08676-.42325q-.58029,1.558-1.33026,1.70822l-1.00308.20061a1.65663,1.65663,0,0,1-1.37978-.60693l-.62895-.57728a3.22386,3.22386,0,0,1-.499-.8194,5.005,5.005,0,0,1-.38685-1.12583l-.79993-3.91839a4.84871,4.84871,0,0,1-.08973-1.29934,2.97781,2.97781,0,0,1,.20442-1.00139l.3458-.772a1.508,1.508,0,0,1,1.07123-.9769l.849-.17014a1.62062,1.62062,0,0,1,1.42633.54937Zm-1.59223.92606-.82068.16422a.59442.59442,0,0,0-.40673.40377l-.26876.61371a1.29061,1.29061,0,0,0-.047.77284l.83252,4.07838a1.23347,1.23347,0,0,0,.37839.6755l.49561.46134a.51058.51058,0,0,0,.43975.18622l.96119-.19215q.18918-.03805.37584-.44441l.67549-1.44749a1.42439,1.42439,0,0,0,.06391-.87019l-.42536-2.08575a1.78781,1.78781,0,0,0-.45625-.98193l-1.23461-1.14783A.593.593,0,0,0,73.74016,261.04993Z"/><path class="cls-2" d="M85.05685,259.936l-1.07038,12.26477q-.04825.65649-.4533.72967l-1.65573.29881a.50752.50752,0,0,1-.47318-.19807,1.27892,1.27892,0,0,1-.29924-.65265,1.25587,1.25587,0,0,1,.04952-.70512.50912.50912,0,0,1,.37289-.35045l1.27819-.23024.25733-3.193-.29119.05249q-.40442.07238-.70724-.568L79.048,261.01946l-.33944-1.84789a1.30175,1.30175,0,0,1,.0453-.7102.49614.49614,0,0,1,.36059-.35468.527.527,0,0,1,.48123.20231,1.24953,1.24953,0,0,1,.306.64756l.26157,1.42549,2.64315,5.55974.41433-.07534.55191-6.11334-.2675-1.472a1.25594,1.25594,0,0,1,.05884-.69919.51976.51976,0,0,1,.37627-.36823.51256.51256,0,0,1,.47148.20993,1.27825,1.27825,0,0,1,.30135.64079Z"/><path class="cls-2" d="M89.101,260.4303l2.35874-.386a1.75069,1.75069,0,0,1,.58323.0474l-.25137-1.37977a1.31852,1.31852,0,0,0-.29458-.6628.51519.51519,0,0,0-.47573-.215l-2.28805.375a.51914.51914,0,0,1-.47361-.22094,1.4511,1.4511,0,0,1-.24041-1.37723.507.507,0,0,1,.37839-.35384l2.28679-.375a1.53859,1.53859,0,0,1,1.41829.64079,4.08756,4.08756,0,0,1,.90617,1.98925L94.414,265.7954a1.29074,1.29074,0,0,1-.0601.72118.51075.51075,0,0,1-.37373.35383.52682.52682,0,0,1-.48546-.21332,1.29351,1.29351,0,0,1-.29754-.66195l-.85073,1.14276-2.03623.33352A1.55458,1.55458,0,0,1,88.872,266.823a3.9901,3.9901,0,0,1-.89009-2.00449l-.19511-1.13768a3.93327,3.93327,0,0,1,.17606-2.17378A1.53178,1.53178,0,0,1,89.101,260.4303Zm3.65979,3.30638-.17734-.81855a1.37327,1.37327,0,0,0-.29881-.66788.50775.50775,0,0,0-.47067-.20908l-2.37185.38938a.50349.50349,0,0,0-.37793.35383,1.30927,1.30927,0,0,0-.05629.71952l.1875,1.09282a1.31393,1.31393,0,0,0,.29626.656.5182.5182,0,0,0,.47319.22178l1.69807-.27849Z"/><path class="cls-2" d="M100.91963,255.17361l.30008,1.85719-.84226,8.02471q-.09015.71487-.419.76946l-.772.12613c-.281.04655-.52442-.15745-.72967-.60947l-3.303-7.2925-.30389-1.88a1.30443,1.30443,0,0,1,.06391-.71867.46647.46647,0,0,1,.8503-.13967,1.29536,1.29536,0,0,1,.28653.66026l.24675,1.4932,2.90938,6.38676.73518-7.00385-.23787-1.47373a1.28812,1.28812,0,0,1,.0673-.71952.52278.52278,0,0,1,.39022-.35552.50681.50681,0,0,1,.47107.215A1.29578,1.29578,0,0,1,100.91963,255.17361Z"/><path class="cls-2" d="M105.29682,257.87306l2.349-.34622a1.74754,1.74754,0,0,1,.576.05672l-.20823-1.37555a1.295,1.295,0,0,0-.27257-.66195.50478.50478,0,0,0-.46515-.22009l-2.27874.33606a.50553.50553,0,0,1-.46219-.22771,1.27523,1.27523,0,0,1-.27511-.65518,1.31022,1.31022,0,0,1,.07746-.71528.51052.51052,0,0,1,.38431-.34537l2.2779-.33605a1.50475,1.50475,0,0,1,1.387.65772,4.00651,4.00651,0,0,1,.83888,1.99009l1.17873,7.25525a1.28411,1.28411,0,0,1-.08126.71444.4701.4701,0,0,1-.85538.12613,1.27338,1.27338,0,0,1-.27511-.662l-.87611,1.12078-2.02734.29881a1.51759,1.51759,0,0,1-1.40644-.66619,3.9066,3.9066,0,0,1-.82279-2.00448l-.1604-1.13429a3.92182,3.92182,0,0,1,.23786-2.15347A1.54574,1.54574,0,0,1,105.29682,257.87306Zm3.52986,3.34109-.15153-.816a1.34989,1.34989,0,0,0-.27722-.667.49289.49289,0,0,0-.46006-.21583l-2.36171.34875a.50865.50865,0,0,0-.3843.34622,1.29922,1.29922,0,0,0-.07746.71359l.15364,1.08689a1.28437,1.28437,0,0,0,.27468.65687.50775.50775,0,0,0,.46219.22771l1.69086-.24971Z"/><path class="cls-2" d="M112.40055,263.03156l-1.2092-9.20726a1.35428,1.35428,0,0,1,.08339-.72118.45681.45681,0,0,1,.84607-.11681,1.35163,1.35163,0,0,1,.26664.68142l.15957,1.213.797-1.47964q.49647-.91167,1.0725-.987l.8757-.11513a1.51541,1.51541,0,0,1,1.37935.68989,3.8771,3.8771,0,0,1,.79655,1.98671l.06857.5189a1.35063,1.35063,0,0,1-.0821.72882.46075.46075,0,0,1-.84607.11682,1.29722,1.29722,0,0,1-.26453-.66534l-.07108-.54175a1.29727,1.29727,0,0,0-.26495-.66534.50431.50431,0,0,0-.46049-.22686l-.77621.10158q-.24888.033-.499.49943l-1.387,2.6148.71147,5.4184a1.28453,1.28453,0,0,1-.08761.71105.45965.45965,0,0,1-.84352.11009A1.29391,1.29391,0,0,1,112.40055,263.03156Z"/><path class="cls-2" d="M124.17224,252.63414l-.55488-4.57866a1.312,1.312,0,0,1,.08677-.706.48956.48956,0,0,1,.37838-.33013.52266.52266,0,0,1,.4643.23363,1.25773,1.25773,0,0,1,.26453.66534l1.62314,13.3923a1.26767,1.26767,0,0,1-.09439.70681.46073.46073,0,0,1-.84606.09735,1.32342,1.32342,0,0,1-.25352-.667l-.05164-.42663q-.70533,1.49574-1.46612,1.58378l-1.01578.11681a1.662,1.662,0,0,1-1.32645-.71443l-.57985-.623a3.162,3.162,0,0,1-.43086-.85072,4.9737,4.9737,0,0,1-.29415-1.14784l-.47827-3.94543a4.81357,4.81357,0,0,1,.01566-1.29428,2.96108,2.96108,0,0,1,.28569-.97428l.408-.73644a1.50672,1.50672,0,0,1,1.14741-.88035l.86-.099a1.62574,1.62574,0,0,1,1.3768.66111Zm-1.66293.78808-.83126.09565a.59178.59178,0,0,0-.43891.36569l-.31828.58577a1.28077,1.28077,0,0,0-.10922.76184l.49773,4.10716a1.21822,1.21822,0,0,0,.32293.6992l.45625.49773a.5117.5117,0,0,0,.42282.22009l.97389-.11174c.12782-.01523.26537-.15067.41182-.4097l.79146-1.37723a1.41322,1.41322,0,0,0,.13375-.8575l-.25437-2.10013a1.76378,1.76378,0,0,0-.37457-1.009l-1.13768-1.23756A.59562.59562,0,0,0,122.50931,253.42222Z"/><path class="cls-2" d="M128.48171,261.07366,127.13156,247.711a1.23373,1.23373,0,0,1,.10624-.68479.49983.49983,0,0,1,.394-.31828.50493.50493,0,0,1,.45074.24125,1.28869,1.28869,0,0,1,.24294.66788l.49308,4.88.855-1.10721a1.78777,1.78777,0,0,1,1.09536-.78215l.73771-.07283a1.50638,1.50638,0,0,1,1.34084.72293,3.98916,3.98916,0,0,1,.7538,2.0011l.88035,7.2248a1.22535,1.22535,0,0,1-.10114.70174.50506.50506,0,0,1-.397.32418.49135.49135,0,0,1-.44822-.2531,1.378,1.378,0,0,1-.24548-.65518l-.88247-7.24848a1.32574,1.32574,0,0,0-.25311-.66111.50758.50758,0,0,0-.45456-.24548l-.66657.066a.7303.7303,0,0,0-.46727.33605l-1.51352,1.96216.62048,6.14635a1.28291,1.28291,0,0,1-.10412.70174.45875.45875,0,0,1-.84438.083A1.28473,1.28473,0,0,1,128.48171,261.07366Z"/><path class="cls-2" d="M137.82017,253.90218l2.35747-.23194a1.72074,1.72074,0,0,1,.57138.08465l-.13882-1.39417a1.31118,1.31118,0,0,0-.23871-.67973.5022.5022,0,0,0-.45287-.24632l-2.28723.22516a.5012.5012,0,0,1-.44987-.25222,1.29978,1.29978,0,0,1-.24167-.67381,1.32869,1.32869,0,0,1,.11258-.71528.513.513,0,0,1,.40125-.33013l2.28637-.22517a1.49957,1.49957,0,0,1,1.3493.73137,4.07466,4.07466,0,0,1,.73729,2.04681l.81432,7.36445a1.30548,1.30548,0,0,1-.116.71613.4672.4672,0,0,1-.85876.08464,1.28741,1.28741,0,0,1-.24167-.68057l-.929,1.08525-2.03581.19977a1.51076,1.51076,0,0,1-1.36835-.74068,3.96749,3.96749,0,0,1-.72036-2.05953l-.10369-1.14953a3.99978,3.99978,0,0,1,.34452-2.15855A1.546,1.546,0,0,1,137.82017,253.90218Zm3.35125,3.54-.11047-.82953a1.37307,1.37307,0,0,0-.24252-.6865.49527.49527,0,0,0-.44779-.23956l-2.371.23363a.50736.50736,0,0,0-.40039.32844,1.33067,1.33067,0,0,0-.11259.71613l.09947,1.103a1.29215,1.29215,0,0,0,.24125.67465.50047.50047,0,0,0,.44864.25138l1.69763-.16675Z"/><path class="cls-2" d="M144.67588,259.48393,143.589,245.89525a1.37668,1.37668,0,0,1,.11766-.72883.457.457,0,0,1,.85157-.06941,1.3756,1.3756,0,0,1,.23236.70089l.64333,8.04333,2.87259-4.76742a.57242.57242,0,0,1,.42791-.31913.4997.4997,0,0,1,.45287.26411,1.40965,1.40965,0,0,1,.22855.69666,1.18618,1.18618,0,0,1-.12828.70936l-2.24192,3.69576,3.46213,4.21382a1.03888,1.03888,0,0,1,.2383.62894,1.43788,1.43788,0,0,1-.116.7119.49691.49691,0,0,1-.39742.34368.5431.5431,0,0,1-.46472-.23364l-3.56668-4.29674-.56169.921.23787,2.97625a1.31986,1.31986,0,0,1-.11936.7119.46088.46088,0,0,1-.85114.07025A1.3254,1.3254,0,0,1,144.67588,259.48393Z"/><path class="cls-2" d="M154.10661,252.64176l2.35493-.15406a1.75735,1.75735,0,0,1,.56842.10242l-.11174-1.39162a1.3259,1.3259,0,0,0-.2239-.68651.5081.5081,0,0,0-.4461-.25818l-2.28467.14983a.51226.51226,0,0,1-.44356-.26495,1.45312,1.45312,0,0,1-.10073-1.38824.49936.49936,0,0,1,.40589-.31489l2.2834-.149a1.5112,1.5112,0,0,1,1.32984.77115,4.09084,4.09084,0,0,1,.69412,2.0612l.66657,7.35937a1.29442,1.29442,0,0,1-.12994.70851.50234.50234,0,0,1-.40166.314.516.516,0,0,1-.45625-.25817,1.30529,1.30529,0,0,1-.22729-.68479l-.94722,1.0505-2.03284.13289a1.52825,1.52825,0,0,1-1.34888-.783,3.99324,3.99324,0,0,1-.67677-2.07305l-.08041-1.14868a3.9541,3.9541,0,0,1,.38557-2.13739A1.51748,1.51748,0,0,1,154.10661,252.64176Zm3.27083,3.634-.094-.82953a1.37612,1.37612,0,0,0-.22813-.69073.49666.49666,0,0,0-.44144-.2531l-2.36805.1549a.49937.49937,0,0,0-.40547.3149,1.30927,1.30927,0,0,0-.12613.70851l.077,1.10128a1.30948,1.30948,0,0,0,.22686.67973.50919.50919,0,0,0,.44271.26495l1.69594-.11089Z"/><path class="cls-2" d="M172.29934,256.87335l2.19791-.07107a.528.528,0,0,1,.45033.27257,1.264,1.264,0,0,1,.21289.68988,1.25016,1.25016,0,0,1-.15745.70174.51815.51815,0,0,1-.427.29966l-2.27623.07367a1.34849,1.34849,0,0,1-.91717-.41393,2.461,2.461,0,0,1-.68477-.97428l-1.58209-4.34a6.7847,6.7847,0,0,1-.36059-1.93169,6.05645,6.05645,0,0,1,.19215-1.91478l1.24773-4.38481a2.89038,2.89038,0,0,1,.58788-1.09028,1.172,1.172,0,0,1,.808-.48927l2.40742-.077a.51292.51292,0,0,1,.44271.2785,1.3057,1.3057,0,0,1,.20527.684,1.35653,1.35653,0,0,1-.1494.71443.50256.50256,0,0,1-.419.31151l-2.319.07449c-.19342.00678-.34283.19639-.44906.5663l-1.18847,4.1114a3.54824,3.54824,0,0,0-.113,1.13937,3.88411,3.88411,0,0,0,.22137,1.21217l1.44961,3.95818Q171.885,256.88861,172.29934,256.87335Z"/><path class="cls-2" d="M183.01461,250.69737l.12444,4.14949a4.23618,4.23618,0,0,1-.69878,2.46836q-.73835,1.14657-1.55711,1.17323l-1.42763.04571a2.05754,2.05754,0,0,1-1.62907-1.08773,4.2887,4.2887,0,0,1-.83379-2.40149l-.12444-4.14949a4.37977,4.37977,0,0,1,.67-2.44973,2.04261,2.04261,0,0,1,1.5787-1.19186l1.42763-.04571q.819-.05083,1.624,1.04711A4.25924,4.25924,0,0,1,183.01461,250.69737Zm-4.91175.23956.11936,3.97511a1.37706,1.37706,0,0,0,.26453.84564l.47615.61625a.494.494,0,0,0,.4334.19638l1.41321-.04571a.70755.70755,0,0,0,.55487-.38007l.35341-.53752a1.22435,1.22435,0,0,0,.20148-.79062l-.11935-3.97511a1.36839,1.36839,0,0,0-.25057-.85665l-.444-.53667a.62784.62784,0,0,0-.51636-.276l-1.26126.04063a.73772.73772,0,0,0-.62768.33691l-.39658.58577A1.3102,1.3102,0,0,0,178.10286,250.93693Z"/><path class="cls-2" d="M190.13189,258.36148l-3.681.05926a.50355.50355,0,0,1-.43382-.2912,1.35174,1.35174,0,0,1-.185-.70427,1.30829,1.30829,0,0,1,.171-.69243.51146.51146,0,0,1,.4279-.29881l1.21725-.01947-.116-11.58-1.23165.01947a.5051.5051,0,0,1-.43382-.28019,1.44889,1.44889,0,0,1-.014-1.38994.51284.51284,0,0,1,.42833-.29373l1.85465-.02963a.50724.50724,0,0,1,.43044.28442,1.28209,1.28209,0,0,1,.18792.68738l.12569,12.56189,1.23207-.02032a.511.511,0,0,1,.43.28612,1.2727,1.2727,0,0,1,.18792.6865,1.3578,1.3578,0,0,1-.17057.70936A.51118.51118,0,0,1,190.13189,258.36148Z"/><path class="cls-2" d="M198.22728,258.36148h-3.68053a.50758.50758,0,0,1-.43129-.298,1.35455,1.35455,0,0,1-.17734-.70682,1.30147,1.30147,0,0,1,.17734-.68989.50852.50852,0,0,1,.43129-.292h1.21681V244.794h-1.23162a.5073.5073,0,0,1-.43087-.28611,1.4474,1.4474,0,0,1,0-1.38993.50834.50834,0,0,1,.43087-.287H196.387a.51305.51305,0,0,1,.42748.292,1.284,1.284,0,0,1,.18116.68988v12.56189h1.23164a.51305.51305,0,0,1,.42748.292,1.284,1.284,0,0,1,.18116.68989,1.35492,1.35492,0,0,1-.17776.70682A.50757.50757,0,0,1,198.22728,258.36148Z"/><path class="cls-2" d="M207.62542,250.89969l-.0237,2.3727a1.27717,1.27717,0,0,1-.18835.6865.50769.50769,0,0,1-.43.28527l-4.304-.06941-.00593.57223a1.36157,1.36157,0,0,0,.25987.85664l.35045.48589a.78262.78262,0,0,0,.54683.37076l3.12989.05079a.51383.51383,0,0,1,.42452.29288,1.28219,1.28219,0,0,1,.17437.69836,1.25654,1.25654,0,0,1-.19173.6865.51222.51222,0,0,1-.42663.28526l-3.20988-.05163a1.28768,1.28768,0,0,1-.66788-.22686,1.76177,1.76177,0,0,1-.51382-.4588l-.5354-.77961a2.76043,2.76043,0,0,1-.41521-.91844,3.86571,3.86571,0,0,1-.15914-1.07758l.04487-4.49909a4.06794,4.06794,0,0,1,.19469-1.03779,2.95823,2.95823,0,0,1,.47784-1.009l.51382-.63486a1.39618,1.39618,0,0,1,1.11483-.63572l1.7099.02794a1.5694,1.5694,0,0,1,1.2088.88373l.44949.70936A3.76532,3.76532,0,0,1,207.62542,250.89969Zm-4.89694-.2311-.01481,1.5203,3.69534.05925.01355-1.36792a1.438,1.438,0,0,0-.20189-.8448l-.35-.50789q-.27173-.36569-.48927-.37076l-1.52834-.02371a.64007.64007,0,0,0-.51761.30643l-.36018.474A1.15752,1.15752,0,0,0,202.72848,250.66859Z"/><path class="cls-2" d="M213.24229,262.84618l-2.63768-.0855a.50782.50782,0,0,1-.4224-.29458,1.28867,1.28867,0,0,1-.157-.70681,1.26292,1.26292,0,0,1,.1985-.684.50507.50507,0,0,1,.43933-.26664l2.63768.08465a.57558.57558,0,0,0,.45922-.27765l.43-.55953a1.03279,1.03279,0,0,0,.23024-.67126l.09015-2.99234q-.89771,1.36369-1.70865,1.3366l-.93537-.02962a1.63238,1.63238,0,0,1-1.28027-.849l-.43764-.66957a2.77086,2.77086,0,0,1-.361-.90067,4.26869,4.26869,0,0,1-.12784-1.15122l.09735-3.24964a5.15021,5.15021,0,0,1,.20189-1.3036,2.76873,2.76873,0,0,1,.4152-.91166l.521-.673a1.53682,1.53682,0,0,1,1.28374-.70767l.877.02794a1.64,1.64,0,0,1,1.2799.86172l.40377.58577-.003-.386a1.28466,1.28466,0,0,1,.201-.684.51358.51358,0,0,1,.43721-.27934.529.529,0,0,1,.42959.30135,1.25254,1.25254,0,0,1,.16464.70089l-.33054,11.01282a3.62318,3.62318,0,0,1-.68777,2.11876l-.51424.6738a1.61526,1.61526,0,0,1-.54556.45033A1.30232,1.30232,0,0,1,213.24229,262.84618Zm-.28864-13.57175-.8194-.02624a.66744.66744,0,0,0-.52482.32251l-.39192.49012a1.30468,1.30468,0,0,0-.24125.78808l-.0982,3.27337a1.30771,1.30771,0,0,0,.21711.75506l.38053.58662a.52081.52081,0,0,0,.39108.27l.99377.03217c.14389.00423.30728-.10748.488-.33521l1.00478-1.29a1.29416,1.29416,0,0,0,.24717-.76438l.04487-1.48474a1.431,1.431,0,0,0-.22686-.88458l-.95272-1.40009a.61766.61766,0,0,0-.51217-.33267Z"/><path class="cls-2" d="M224.06761,251.3297l-.09481,2.3744a1.30121,1.30121,0,0,1-.20866.684.51629.51629,0,0,1-.44017.27765l-4.30609-.13882-.02285.57392a1.35713,1.35713,0,0,0,.23317.86172l.33648.491a.7703.7703,0,0,0,.53667.38092l3.132.09988a.51153.51153,0,0,1,.41692.30051,1.40364,1.40364,0,0,1-.05967,1.3857.52145.52145,0,0,1-.43594.27934l-3.21158-.10412a1.27127,1.27127,0,0,1-.66238-.23786,1.73894,1.73894,0,0,1-.50026-.46726l-.51255-.78893a2.70179,2.70179,0,0,1-.38854-.92606,3.86473,3.86473,0,0,1-.127-1.08176l.18029-4.50163a4.10047,4.10047,0,0,1,.226-1.0344,2.99213,2.99213,0,0,1,.50874-1.00225l.53371-.62724a1.41692,1.41692,0,0,1,1.13514-.61879l1.7116.055q.645.02033,1.18255.9049l.42917.71613A3.73,3.73,0,0,1,224.06761,251.3297Zm-4.89485-.31066-.06094,1.52029,3.69661.12021.0546-1.36878a1.4325,1.4325,0,0,0-.17522-.849l-.33521-.51382c-.17438-.248-.33352-.37415-.47911-.37838l-1.52961-.0491a.65062.65062,0,0,0-.52736.29881l-.37457.46808a1.16813,1.16813,0,0,0-.26916.75171Z"/><path class="cls-2" d="M240.38918,252.15672l-.29077,4.1588a4.31183,4.31183,0,0,1-.93241,2.399,2.07009,2.07009,0,0,1-1.64727,1.02171l-1.40855-.09227q-.82152-.0546-1.49194-1.24518a4.35237,4.35237,0,0,1-.58069-2.48021l.29077-4.15965a4.46012,4.46012,0,0,1,.90363-2.38284,2.02047,2.02047,0,0,1,1.66969-1.03779l1.40856.09227q.80755.03046,1.49109,1.2037A4.31826,4.31826,0,0,1,240.38918,252.15672Zm-4.8508-.23617-.27892,3.98273a1.4073,1.4073,0,0,0,.17564.87188l.40589.662a.488.488,0,0,0,.40674.23786l1.39417.09142a.69879.69879,0,0,0,.58238-.32592l.40082-.50367a1.23986,1.23986,0,0,0,.27764-.7703l.27892-3.98273a1.38432,1.38432,0,0,0-.1621-.882l-.38261-.579a.61571.61571,0,0,0-.47912-.32505l-1.24349-.08127a.72666.72666,0,0,0-.65185.27511l-.44652.54683A1.32867,1.32867,0,0,0,235.53838,251.92055Z"/><path class="cls-2" d="M245.39192,250.94963l-.66872,8.35992a1.29894,1.29894,0,0,1-.23448.68227.50523.50523,0,0,1-.44441.2531.51853.51853,0,0,1-.41393-.32331,1.30419,1.30419,0,0,1-.12274-.71189l.66873-8.35908-.61543-.05079a.50282.50282,0,0,1-.40123-.32759,1.32527,1.32527,0,0,1-.1202-.706,1.43351,1.43351,0,0,1,.21582-.673.48925.48925,0,0,1,.463-.26326l.62979.05164.06095-.76184a4.61011,4.61011,0,0,1,.83337-2.45738,1.849,1.849,0,0,1,1.65742-.86681l1.40943.11513a.50739.50739,0,0,1,.40166.32843,1.37424,1.37424,0,0,1,.11766.72968,1.30365,1.30365,0,0,1-.23363.67719.50561.50561,0,0,1-.44525.25733l-1.40943-.11512a.835.835,0,0,0-.74576.364,1.93263,1.93263,0,0,0-.36991,1.06742l-.061.76184,1.20117.09819a.48168.48168,0,0,1,.40081.31574,1.34016,1.34016,0,0,1,.12147.71867,1.31161,1.31161,0,0,1-.23279.67719.50825.50825,0,0,1-.44694.25818Z"/><path class="cls-2" d="M264.9293,248.64715l-4.21805-.41478-.52355,4.71325,1.81825.17861a.49541.49541,0,0,1,.386.32928,1.25955,1.25955,0,0,1,.10243.69751,1.3603,1.3603,0,0,1-.25183.68563.50839.50839,0,0,1-.45414.24633l-1.81826-.17861-.52779,4.74711,4.23244.41647a.49857.49857,0,0,1,.3877.3233,1.41057,1.41057,0,0,1-.15576,1.37129.52566.52566,0,0,1-.46133.23956l-5.40994-.53144,1.70187-15.31382,5.40991.53159a.50955.50955,0,0,1,.397.3369,1.29725,1.29725,0,0,1,.10369.71444,1.27386,1.27386,0,0,1-.25648.662A.52505.52505,0,0,1,264.9293,248.64715Z"/><path class="cls-2" d="M269.9913,253.7769l-1.83984,1.53214-.75084,6.19461a1.28336,1.28336,0,0,1-.25987.66026.51013.51013,0,0,1-.455.2404.50379.50379,0,0,1-.38388-.3369,1.27755,1.27755,0,0,1-.0948-.70089l1.11482-9.19372a1.35536,1.35536,0,0,1,.25776-.678.5068.5068,0,0,1,.45837-.24548.49972.49972,0,0,1,.38388.342,1.32944,1.32944,0,0,1,.09354.71867l-.07872.64587,1.21979-.94807a1.70923,1.70923,0,0,1,1.30782-.4224l.55445.06349a1.47136,1.47136,0,0,1,1.13218.95992,3.88427,3.88427,0,0,1,.303,2.08236l-.72756,7.36609a1.22869,1.22869,0,0,1-.2531.6611.5147.5147,0,0,1-.46091.23956.50136.50136,0,0,1-.38092-.30727,1.28683,1.28683,0,0,1-.09946-.73052l.7-7.25272q.10157-1.01832-.532-1.09027l-.58493-.06772A.87462.87462,0,0,0,269.9913,253.7769Z"/><path class="cls-2" d="M277.3566,267.96489l-2.5911-.33944a.50186.50186,0,0,1-.386-.33352,1.28276,1.28276,0,0,1-.08423-.71612,1.26478,1.26478,0,0,1,.26453-.65857.50445.50445,0,0,1,.4588-.22178l2.5911.34029a.57288.57288,0,0,0,.48-.2311l.47953-.513a1.03409,1.03409,0,0,0,.29458-.64248l.38854-2.95763q-1.02087,1.26469-1.81784,1.16053l-.91844-.12105a1.60749,1.60749,0,0,1-1.17661-.965l-.36315-.706a2.76188,2.76188,0,0,1-.26537-.92775,4.2517,4.2517,0,0,1-.01143-1.15292l.42155-3.21158a5.14035,5.14035,0,0,1,.33013-1.27312,2.76641,2.76641,0,0,1,.5007-.86172l.58027-.61794a1.524,1.524,0,0,1,1.33573-.57643l.86173.11258a1.61933,1.61933,0,0,1,1.17537.9769l.33775.62048.03682-.38346a1.27813,1.27813,0,0,1,.26707-.65857.50861.50861,0,0,1,.4571-.23363.52083.52083,0,0,1,.39362.33944,1.26161,1.26161,0,0,1,.091.71105L280.059,264.80588a3.63619,3.63619,0,0,1-.88966,2.03411l-.5735.61794a1.63641,1.63641,0,0,1-.5828.39361A1.28964,1.28964,0,0,1,277.3566,267.96489Zm1.075-13.47863-.80417-.105a.661.661,0,0,0-.54937.26834l-.43514.44779a1.30386,1.30386,0,0,0-.31744.75758l-.42494,3.23528a1.30569,1.30569,0,0,0,.13841.76946l.31743.61709a.50627.50627,0,0,0,.35806.30558l.97516.12867q.21331.02793.51509-.28527l1.11863-1.18085a1.29768,1.29768,0,0,0,.32-.73391l.193-1.467a1.429,1.429,0,0,0-.135-.899l-.79782-1.47964A.61046.61046,0,0,0,278.43164,254.48626Z"/><path class="cls-2" d="M287.00868,265.08514l-3.64924-.53837a.50713.50713,0,0,1-.38388-.34621,1.4381,1.4381,0,0,1,.19385-1.37047.50127.50127,0,0,1,.46472-.22686l1.22572.18118,1.02594-7.25441-1.21217-.17861a.50571.50571,0,0,1-.38219-.35129,1.29806,1.29806,0,0,1-.07873-.70851,1.34222,1.34222,0,0,1,.27384-.6738.5.5,0,0,1,.46515-.23279l1.825.26919a.50951.50951,0,0,1,.383.35806,1.366,1.366,0,0,1,.07492.72459l-1.1635,8.22618,1.19778.17692a.52688.52688,0,0,1,.39193.34621,1.42692,1.42692,0,0,1-.19131,1.37808A.50707.50707,0,0,1,287.00868,265.08514Zm-.146-16.56747.62725.09226a.51211.51211,0,0,1,.38515.34622,1.31329,1.31329,0,0,1,.07619.71359l-.11809.83294a1.35534,1.35534,0,0,1-.27257.67465.50226.50226,0,0,1-.46641.23279l-.64164-.09481a.51176.51176,0,0,1-.38854-.36484,1.27183,1.27183,0,0,1-.07282-.695l.13586-.855a1.29461,1.29461,0,0,1,.27172-.662A.50146.50146,0,0,1,286.86266,248.51767Z"/><path class="cls-2" d="M294.49759,257.12307l-1.91983,1.46019-1.00732,6.23016a1.28639,1.28639,0,0,1-.28908.65518.458.458,0,0,1-.844-.138,1.30768,1.30768,0,0,1-.0673-.71444l1.4949-9.24706a1.35982,1.35982,0,0,1,.28778-.673.50514.50514,0,0,1,.47234-.226.51215.51215,0,0,1,.375.36483,1.35361,1.35361,0,0,1,.06518.73137l-.105.64923,1.27058-.89982a1.71271,1.71271,0,0,1,1.33748-.36314l.55784.09142a1.5071,1.5071,0,0,1,1.10636,1.02679,3.949,3.949,0,0,1,.22178,2.12045l-1.03018,7.41778a1.25031,1.25031,0,0,1-.28146.65688.46761.46761,0,0,1-.8486-.11005,1.299,1.299,0,0,1-.07026-.74406l.99716-7.3035q.14221-1.02468-.4935-1.12922l-.58831-.0965A.87147.87147,0,0,0,294.49759,257.12307Z"/><path class="cls-2" d="M305.54935,260.3084l-.40547,2.35917a1.31048,1.31048,0,0,1-.29627.656.51876.51876,0,0,1-.47234.22178l-4.25276-.69751-.09777.56884a1.38067,1.38067,0,0,0,.11935.8922l.26876.53329c.149.27172.31066.42155.4825.44948l3.09307.50708a.51016.51016,0,0,1,.3733.35383,1.423,1.423,0,0,1-.2404,1.37639.52268.52268,0,0,1-.46808.22178l-3.17179-.51975a1.27949,1.27949,0,0,1-.626-.3233,1.737,1.737,0,0,1-.43428-.5316l-.405-.85495a2.75476,2.75476,0,0,1-.26326-.97515,3.87988,3.87988,0,0,1,.01481-1.09621l.76819-4.47284a4.14446,4.14446,0,0,1,.36058-1.00478,3.01426,3.01426,0,0,1,.63487-.93537l.61074-.557a1.41761,1.41761,0,0,1,1.20794-.47068l1.68874.2768q.63867.10413,1.05515,1.05727l.3314.77115A3.78883,3.78883,0,0,1,305.54935,260.3084Zm-4.81356-.94468-.25945,1.511,3.6509.59846.23364-1.35946a1.44718,1.44718,0,0,0-.06391-.87019l-.26453-.55783q-.21141-.40379-.42494-.43933l-1.511-.248a.65524.65524,0,0,0-.56207.23109l-.433.41816a1.18283,1.18283,0,0,0-.36571.71613Z"/><path class="cls-2" d="M313.54694,261.93536l-.42578,2.316a1.26453,1.26453,0,0,1-.30135.64079.51151.51151,0,0,1-.47107.20993l-4.2189-.761-.10285.55952a1.34365,1.34365,0,0,0,.1101.88035l.26156.53075q.22034.405.47488.45118l3.0685.5536a.506.506,0,0,1,.36737.35468,1.38456,1.38456,0,0,1-.25138,1.351.51594.51594,0,0,1-.46808.21077l-3.1464-.56714a1.27659,1.27659,0,0,1-.61793-.33014,1.73862,1.73862,0,0,1-.42748-.5299l-.394-.84987a2.713,2.713,0,0,1-.25183-.965,3.808,3.808,0,0,1,.02582-1.07927l.80712-4.39328a4.017,4.017,0,0,1,.36653-.98277,2.94707,2.94707,0,0,1,.64122-.91082l.612-.53752a1.40523,1.40523,0,0,1,1.20413-.44271l1.67689.30219q.63106.11428,1.0378,1.05981l.32124.76522A3.70886,3.70886,0,0,1,313.54694,261.93536Zm-4.77419-1.01494-.27257,1.48389,3.62212.65264.24548-1.33488a1.41074,1.41074,0,0,0-.055-.85834l-.2586-.55361c-.13586-.26749-.27511-.41562-.41732-.441l-1.49828-.27a.64536.64536,0,0,0-.56123.21758l-.43382.40462A1.1521,1.1521,0,0,0,308.77275,260.92042Z"/><path class="cls-2" d="M314.33841,268.80207l1.86354-9.13022a1.37923,1.37923,0,0,1,.3132-.65942.45519.45519,0,0,1,.83676.16168,1.36394,1.36394,0,0,1,.0292.73306l-.2459,1.20286,1.23375-1.14869a1.63087,1.63087,0,0,1,1.33322-.59169l.86342.17268a1.50428,1.50428,0,0,1,1.07546,1.0979,3.90837,3.90837,0,0,1,.102,2.14246l-.10539.51551a1.36478,1.36478,0,0,1-.31363.6645.45824.45824,0,0,1-.83675-.16084,1.3068,1.3068,0,0,1-.03259-.71613l.1101-.53836a1.31085,1.31085,0,0,0-.03259-.71613.49789.49789,0,0,0-.35934-.364l-.76522-.15322q-.245-.04951-.63363.3149l-2.15981,2.0358-1.09663,5.37266a1.29875,1.29875,0,0,1-.314.64672.50982.50982,0,0,1-.4715.19808.5.5,0,0,1-.36058-.364A1.30665,1.30665,0,0,1,314.33841,268.80207Z"/><path class="cls-2" d="M326.85459,272.38526l-3.59758-.77962a.50584.50584,0,0,1-.35806-.37246,1.46421,1.46421,0,0,1,.29119-1.35946.5021.5021,0,0,1,.48-.19638l1.20794.26156,1.54188-7.196-1.1944-.259a.50623.50623,0,0,1-.356-.37753,1.31776,1.31776,0,0,1-.02751-.71444,1.37554,1.37554,0,0,1,.32167-.65688.50066.50066,0,0,1,.48-.20146l1.79878.38939a.50519.50519,0,0,1,.35553.38261,1.37512,1.37512,0,0,1,.0237.73221l-1.74842,8.16015,1.18.25564a.52324.52324,0,0,1,.36526.3733,1.43485,1.43485,0,0,1-.28907,1.36623A.507.507,0,0,1,326.85459,272.38526Zm1.042-16.60049.61794.13375a.50443.50443,0,0,1,.35807.37245,1.30745,1.30745,0,0,1,.02624.71952l-.17692.82617a1.37071,1.37071,0,0,1-.32167.65772.50211.50211,0,0,1-.4808.20231l-.63233-.13713a.51088.51088,0,0,1-.361-.39108,1.288,1.288,0,0,1-.02244-.70089l.19639-.84649a1.31042,1.31042,0,0,1,.31828-.64587A.50243.50243,0,0,1,327.89661,255.78477Z"/><path class="cls-2" d="M334.81666,264.88706l-2.00152,1.33661-1.38655,6.176a1.30321,1.30321,0,0,1-.328.63825.50968.50968,0,0,1-.48.19046.51807.51807,0,0,1-.35129-.38431,1.30988,1.30988,0,0,1-.02328-.72036l2.05779-9.16662a1.366,1.366,0,0,1,.32886-.65518.50151.50151,0,0,1,.485-.19639.5177.5177,0,0,1,.3496.39108,1.37253,1.37253,0,0,1,.01907.73644l-.14475.64418,1.3201-.81771a1.697,1.697,0,0,1,1.35354-.27765l.55106.12867a1.51407,1.51407,0,0,1,1.0361,1.10128,4.00149,4.00149,0,0,1,.091,2.13908l-1.48222,7.36445a1.26784,1.26784,0,0,1-.32209.63994.465.465,0,0,1-.83718-.16591,1.30686,1.30686,0,0,1-.02412-.75l1.44284-7.25271q.20569-1.01706-.422-1.16392l-.57815-.13459A.85941.85941,0,0,0,334.81666,264.88706Z"/><path class="cls-2" d="M340.63119,279.81065l-2.5437-.59339a.50153.50153,0,0,1-.35129-.36822,1.44063,1.44063,0,0,1,.3187-1.34507.50468.50468,0,0,1,.47953-.17353l2.5437.59339a.57209.57209,0,0,0,.5007-.18118l.52906-.46049a1.03641,1.03641,0,0,0,.35848-.60777l.68563-2.8933q-1.144,1.15291-1.92618.97007l-.90149-.21077a1.59937,1.59937,0,0,1-1.07292-1.0725l-.29119-.7356a2.76176,2.76176,0,0,1-.16972-.94553,4.2528,4.2528,0,0,1,.10539-1.14445l.74491-3.14129a5.13629,5.13629,0,0,1,.4571-1.22826,2.79091,2.79091,0,0,1,.58492-.80585l.64079-.55361a1.52688,1.52688,0,0,1,1.38782-.43933l.84564.19724a1.61112,1.61112,0,0,1,1.07039,1.08437l.27426.64757.07367-.37584a1.28868,1.28868,0,0,1,.33352-.62556.508.508,0,0,1,.47911-.18538.51391.51391,0,0,1,.3568.375,1.23884,1.23884,0,0,1,.01907.71359l-2.52338,10.64289a3.6275,3.6275,0,0,1-1.09113,1.92746l-.63317.5553a1.62489,1.62489,0,0,1-.62175.33267A1.2799,1.2799,0,0,1,340.63119,279.81065Zm2.43365-13.25093-.78977-.18453a.66812.66812,0,0,0-.57392.21162l-.47827.40124a1.30258,1.30258,0,0,0-.39235.71951l-.75,3.16333a1.29619,1.29619,0,0,0,.05967.77707l.2531.64334a.51022.51022,0,0,0,.325.33859l.95738.22263q.21078.04951.54176-.23109l1.23248-1.05981a1.29649,1.29649,0,0,0,.39362-.695l.33987-1.4348a1.41337,1.41337,0,0,0-.0436-.9049l-.64418-1.54484A.60467.60467,0,0,0,343.06484,266.55972Z"/></g></g></g></g></svg>